<?xml version="1.0" encoding="UTF-8"?>
<svg version="1.1" xmlns="http://www.w3.org/2000/svg" width="78" height="100">
<path d="M0 0 C25.74 0 51.48 0 78 0 C78 33 78 66 78 100 C52.26 100 26.52 100 0 100 C0 67 0 34 0 0 Z " fill="#3A91BB" transform="translate(0,0)"/>
<path d="M0 0 C25.74 0 51.48 0 78 0 C78 33 78 66 78 100 C61.83 100 45.66 100 29 100 C31.7767817 97.91741372 33.92785045 96.41250094 36.94238281 94.9152832 C38.09891357 94.3371991 38.09891357 94.3371991 39.27880859 93.74743652 C40.07883301 93.35254028 40.87885742 92.95764404 41.703125 92.55078125 C42.8176001 91.99505432 42.8176001 91.99505432 43.95458984 91.42810059 C46.71754112 90.05183753 49.48397771 88.68258046 52.25 87.3125 C58.4375 84.239375 64.625 81.16625 71 78 C71 55.89 71 33.78 71 11 C55.45967478 1.5527864 55.45967478 1.5527864 47 2 C44.73683597 2.70717834 44.73683597 2.70717834 42.64697266 3.8359375 C41.83558838 4.24199219 41.0242041 4.64804688 40.18823242 5.06640625 C39.35525635 5.49824219 38.52228027 5.93007812 37.6640625 6.375 C36.88377686 6.76816406 36.10349121 7.16132812 35.29956055 7.56640625 C32.40136521 9.0311371 29.51379112 10.51680798 26.625 12 C16.910625 16.95 16.910625 16.95 7 22 C7 44.11 7 66.22 7 89 C13.27 92.3 19.54 95.6 26 99 C26 99.33 26 99.66 26 100 C17.42 100 8.84 100 0 100 C0 67 0 34 0 0 Z " fill="#FAFCFD" transform="translate(0,0)"/>
<path d="M0 0 C4.57263314 0.42536122 7.99065362 1.80440556 12 4 C12 4.66 12 5.32 12 6 C11.05680908 6.46897705 10.11361816 6.9379541 9.1418457 7.42114258 C5.62779831 9.16908557 2.11509544 10.91971595 -1.3972168 12.67114258 C-2.91475735 13.42740546 -4.43265687 14.1829485 -5.95092773 14.93774414 C-8.13881705 16.0255934 -10.32538328 17.11606314 -12.51171875 18.20703125 C-13.18587326 18.54152786 -13.86002777 18.87602448 -14.55461121 19.22065735 C-16.37739951 20.13194399 -18.18913588 21.06524246 -20 22 C-20.88369263 22.41169434 -21.76738525 22.82338867 -22.67785645 23.24755859 C-25.24701644 24.80133576 -25.24701644 24.80133576 -25.63923645 27.63859558 C-25.64589828 28.6978273 -25.65256012 29.75705902 -25.65942383 30.84838867 C-25.67906693 32.0494072 -25.69871002 33.25042572 -25.71894836 34.48783875 C-25.71304939 36.4332531 -25.71304939 36.4332531 -25.70703125 38.41796875 C-25.72014615 39.75891873 -25.73544975 41.09984895 -25.75285339 42.44075012 C-25.79274261 45.96717728 -25.80289616 49.49308819 -25.80688477 53.01971436 C-25.81620912 56.61942241 -25.85361803 60.21882619 -25.88867188 63.81835938 C-25.95328672 70.87886136 -25.98649468 77.93920038 -26 85 C-30.01800056 83.78525564 -33.71079314 82.65858718 -37 80 C-37.60127258 77.32344055 -37.60127258 77.32344055 -37.56762695 74.05981445 C-37.5672493 72.83877518 -37.56687164 71.6177359 -37.56648254 70.35969543 C-37.54067612 69.04087875 -37.51486969 67.72206207 -37.48828125 66.36328125 C-37.4789541 64.99994705 -37.47183752 63.63659609 -37.46684265 62.27323914 C-37.44776422 58.68726212 -37.3986588 55.10230001 -37.34332275 51.51672363 C-37.29214691 47.85699189 -37.26933234 44.1970959 -37.24414062 40.53710938 C-37.1905386 33.35761054 -37.10521838 26.17894754 -37 19 C-35.91468994 18.45996338 -34.82937988 17.91992676 -33.71118164 17.36352539 C-29.69780659 15.36586476 -25.68574078 13.3655871 -21.67407227 11.36450195 C-19.93517279 10.49757189 -18.19591556 9.63135902 -16.45629883 8.76586914 C-13.96081412 7.52416826 -11.46661299 6.27992259 -8.97265625 5.03515625 C-8.19036148 4.64658951 -7.40806671 4.25802277 -6.60206604 3.85768127 C-3.06963488 2.27204099 -3.06963488 2.27204099 0 0 Z " fill="#FBFDFD" transform="translate(48,6)"/>
<path d="M0 0 C0 9.57 0 19.14 0 29 C4.29 27.02 8.58 25.04 13 23 C13.66 23 14.32 23 15 23 C15.10832169 25.08218362 15.18573541 27.16599129 15.25 29.25 C15.29640625 30.41015625 15.3428125 31.5703125 15.390625 32.765625 C14.90973814 36.74736821 13.99535809 37.43956362 11 40 C8.37451172 41.55566406 8.37451172 41.55566406 5.4296875 43.015625 C4.36878906 43.54414062 3.30789062 44.07265625 2.21484375 44.6171875 C1.11269531 45.15601563 0.01054688 45.69484375 -1.125 46.25 C-2.78982422 47.08144531 -2.78982422 47.08144531 -4.48828125 47.9296875 C-12.71913485 52 -12.71913485 52 -15 52 C-15.19796271 45.82546709 -15.34302108 39.65278465 -15.43945312 33.47583008 C-15.47965263 31.37556788 -15.53422399 29.27552913 -15.60351562 27.17602539 C-15.70072891 24.15455069 -15.74595912 21.13603577 -15.78125 18.11328125 C-15.82254028 17.17664139 -15.86383057 16.24000153 -15.90637207 15.27497864 C-15.90819274 12.62182257 -15.82453135 10.52397969 -15 8 C-12.60854098 5.66421277 -10.03318516 4.34872941 -7 3 C-5.2984375 2.1028125 -5.2984375 2.1028125 -3.5625 1.1875 C-1 0 -1 0 0 0 Z " fill="#FCFDFE" transform="translate(50,37)"/>
</svg>
